<?xml version="1.0" encoding="UTF-8"?>
<svg width="225px" height="176px" viewBox="0 0 225 176" version="1.1" xmlns="http://www.w3.org/2000/svg" xmlns:xlink="http://www.w3.org/1999/xlink">
    <!-- Generator: Sketch 47 (45396) - http://www.bohemiancoding.com/sketch -->
    <title>Group 3</title>
    <desc>Created with Sketch.</desc>
    <defs>
        <linearGradient x1="-6.93683948%" y1="43.746835%" x2="110.133054%" y2="43.746835%" id="linearGradient-1">
            <stop stop-color="#EC008C" offset="0%"></stop>
            <stop stop-color="#FC6767" offset="50.0298948%"></stop>
            <stop stop-color="#FCEA67" offset="100%"></stop>
        </linearGradient>
    </defs>
    <g id="Page-1" stroke="none" stroke-width="1" fill="none" fill-rule="evenodd">
        <g id="4" transform="translate(-48.000000, -83.000000)" fill="url(#linearGradient-1)">
            <g id="Group-3" transform="translate(48.000000, 83.000000)">
                <path d="M139.063581,171.188914 C186.174626,171.188914 224.365674,132.997866 224.365674,85.8868214 C224.365674,38.7757764 186.174626,0.584728589 139.063581,0.584728589 C91.9525359,0.584728589 53.761488,38.7757764 53.761488,85.8868214 C53.761488,132.997866 91.9525359,171.188914 139.063581,171.188914 Z M35.4162716,112.005375 L0.389033479,112.005375 L16.3702077,100.734674 L7.13954488,95.2723357 L22.3369366,96.5266466 L49.0583216,77.6814266 L84.5357247,101.088792 L78.032518,96.7874924 L82.0858271,93.9124429 L57.0346292,63.8208854 L77.1593986,46.6041539 L91.3890335,58.7443909 L83.7329995,70.941352 L82.8513296,61.1647101 L77.9707758,57.0198102 L69.5993626,63.7406315 L95.705621,95.8492483 L72.0779683,119.313245 L64.2494753,116.649877 L60.6517356,121.535042 L58.4655851,149.651168 L75.8186609,153.908699 L75.2316599,155.081427 L58.3144925,151.594373 L56.4476282,175.604154 L54.5199482,150.812222 L38.2505974,147.458699 L51.8559304,121.73371 L35.4162716,112.005375 Z M44.1541363,145.090435 L54.6393728,128.280919 L55.3198622,147.504262 L44.1541363,145.090435 Z M110.629253,106.311113 L110.629253,137.483568 L106.975933,137.483568 L106.975933,106.311113 L97.2903861,106.311113 L97.2903861,103.386466 L120.3148,103.386466 L120.3148,106.311113 L110.629253,106.311113 Z M124.286458,137.483568 L124.286458,103.386466 L147.14095,103.386466 L147.14095,106.311113 L127.939779,106.311113 L127.939779,118.984583 L143.48763,118.984583 L143.48763,121.909229 L127.939779,121.909229 L127.939779,134.558921 L147.14095,134.558921 L147.14095,137.483568 L124.286458,137.483568 Z M174.533507,129.589399 C174.533507,130.746582 174.273907,131.832416 173.754698,132.846933 C173.23549,133.861449 172.522769,134.749138 171.616515,135.510026 C170.71026,136.270913 169.652979,136.869311 168.44464,137.305236 C167.2363,137.741161 165.943019,137.95912 164.564757,137.95912 L161.676085,137.95912 C160.297823,137.95912 158.999822,137.741161 157.782042,137.305236 C156.564263,136.869311 155.502261,136.270913 154.596007,135.510026 C153.689752,134.749138 152.977032,133.861449 152.457823,132.846933 C151.938615,131.832416 151.679015,130.746582 151.679015,129.589399 L151.679015,111.280635 C151.679015,110.123452 151.938615,109.037618 152.457823,108.023102 C152.977032,107.008585 153.689752,106.120896 154.596007,105.360009 C155.502261,104.599121 156.564263,104.000724 157.782042,103.564799 C158.999822,103.128873 160.297823,102.910914 161.676085,102.910914 L164.564757,102.910914 C165.943019,102.910914 167.2363,103.128873 168.44464,103.564799 C169.652979,104.000724 170.71026,104.599121 171.616515,105.360009 C172.522769,106.120896 173.23549,107.008585 173.754698,108.023102 C174.273907,109.037618 174.533507,110.123452 174.533507,111.280635 L174.533507,112.659737 L170.880187,113.135289 L170.880187,111.280635 C170.880187,110.519747 170.710266,109.810389 170.370421,109.152538 C170.030576,108.494688 169.568015,107.920068 168.982726,107.428661 C168.397436,106.937255 167.713036,106.548891 166.929503,106.263558 C166.14597,105.978225 165.30109,105.835561 164.394835,105.835561 L161.846007,105.835561 C160.939752,105.835561 160.094872,105.978225 159.311339,106.263558 C158.527806,106.548891 157.838686,106.937255 157.243956,107.428661 C156.649227,107.920068 156.181946,108.494688 155.842101,109.152538 C155.502255,109.810389 155.332335,110.519747 155.332335,111.280635 L155.332335,129.589399 C155.332335,130.350287 155.502255,131.059645 155.842101,131.717496 C156.181946,132.375347 156.649227,132.95393 157.243956,133.453262 C157.838686,133.952594 158.527806,134.344921 159.311339,134.630254 C160.094872,134.915587 160.939752,135.058251 161.846007,135.058251 L164.394835,135.058251 C165.30109,135.058251 166.14597,134.915587 166.929503,134.630254 C167.713036,134.344921 168.397436,133.952594 168.982726,133.453262 C169.568015,132.95393 170.030576,132.375347 170.370421,131.717496 C170.710266,131.059645 170.880187,130.350287 170.880187,129.589399 L170.880187,127.734745 L174.533507,128.234075 L174.533507,129.589399 Z M200.028602,137.483568 L200.028602,121.909229 L184.480751,121.909229 L184.480751,137.483568 L180.827431,137.483568 L180.827431,103.386466 L184.480751,103.386466 L184.480751,118.984583 L200.028602,118.984583 L200.028602,103.386466 L203.681923,103.386466 L203.681923,137.483568 L200.028602,137.483568 Z M99.4125,94.345 C96.9974879,92.2749897 95.79,89.1700207 95.79,85.03 L95.79,66.67 C95.79,66.3399984 95.894999,66.0625011 96.105,65.8375 C96.3150011,65.6124989 96.5849984,65.5 96.915,65.5 L103.08,65.5 C103.410002,65.5 103.687499,65.6124989 103.9125,65.8375 C104.137501,66.0625011 104.25,66.3399984 104.25,66.67 L104.25,84.94 C104.25,86.8000093 104.692496,88.1949953 105.5775,89.125 C106.462504,90.0550047 107.729992,90.52 109.38,90.52 C111.030008,90.52 112.297496,90.0475047 113.1825,89.1025 C114.067504,88.1574953 114.51,86.7700091 114.51,84.94 L114.51,66.67 C114.51,66.3399984 114.622499,66.0625011 114.8475,65.8375 C115.072501,65.6124989 115.349998,65.5 115.68,65.5 L121.8,65.5 C122.130002,65.5 122.407499,65.6124989 122.6325,65.8375 C122.857501,66.0625011 122.97,66.3399984 122.97,66.67 L122.97,85.03 C122.97,89.1700207 121.770012,92.2749897 119.37,94.345 C116.969988,96.4150103 113.655021,97.45 109.425,97.45 C105.164979,97.45 101.827512,96.4150103 99.4125,94.345 Z M128.1575,96.6625 C127.932499,96.4374989 127.82,96.1750015 127.82,95.875 L127.82,66.67 C127.82,66.3399984 127.924999,66.0625011 128.135,65.8375 C128.345001,65.6124989 128.614998,65.5 128.945,65.5 L134.03,65.5 C134.720003,65.5 135.229998,65.7849972 135.56,66.355 L146.18,83.14 L146.18,66.67 C146.18,66.3399984 146.284999,66.0625011 146.495,65.8375 C146.705001,65.6124989 146.974998,65.5 147.305,65.5 L153.02,65.5 C153.350002,65.5 153.619999,65.6124989 153.83,65.8375 C154.040001,66.0625011 154.145,66.3399984 154.145,66.67 L154.145,95.83 C154.145,96.1600016 154.040001,96.4374989 153.83,96.6625 C153.619999,96.8875011 153.350002,97 153.02,97 L147.935,97 C147.244997,97 146.735002,96.7150029 146.405,96.145 L135.83,80.035 L135.83,95.875 C135.83,96.2050016 135.717501,96.4749989 135.4925,96.685 C135.267499,96.8950011 134.990002,97 134.66,97 L128.945,97 C128.644998,97 128.382501,96.8875011 128.1575,96.6625 Z M159.6025,96.6625 C159.377499,96.4374989 159.265,96.1750015 159.265,95.875 L159.265,66.67 C159.265,66.3399984 159.369999,66.0625011 159.58,65.8375 C159.790001,65.6124989 160.059998,65.5 160.39,65.5 L165.475,65.5 C166.165003,65.5 166.674998,65.7849972 167.005,66.355 L177.625,83.14 L177.625,66.67 C177.625,66.3399984 177.729999,66.0625011 177.94,65.8375 C178.150001,65.6124989 178.419998,65.5 178.75,65.5 L184.465,65.5 C184.795002,65.5 185.064999,65.6124989 185.275,65.8375 C185.485001,66.0625011 185.59,66.3399984 185.59,66.67 L185.59,95.83 C185.59,96.1600016 185.485001,96.4374989 185.275,96.6625 C185.064999,96.8875011 184.795002,97 184.465,97 L179.38,97 C178.689997,97 178.180002,96.7150029 177.85,96.145 L167.275,80.035 L167.275,95.875 C167.275,96.2050016 167.162501,96.4749989 166.9375,96.685 C166.712499,96.8950011 166.435002,97 166.105,97 L160.39,97 C160.089998,97 159.827501,96.8875011 159.6025,96.6625 Z M199.1475,96.6625 C198.922499,96.4374989 198.81,96.1750015 198.81,95.875 L198.81,86.29 L188.415,66.94 C188.325,66.7899992 188.28,66.6250009 188.28,66.445 C188.28,66.2049988 188.377499,65.987501 188.5725,65.7925 C188.767501,65.597499 188.984999,65.5 189.225,65.5 L195.165,65.5 C195.585002,65.5 195.929999,65.6049989 196.2,65.815 C196.470001,66.0250011 196.664999,66.2499988 196.785,66.49 L203.04,77.785 L209.295,66.49 C209.415001,66.2499988 209.609999,66.0250011 209.88,65.815 C210.150001,65.6049989 210.494998,65.5 210.915,65.5 L216.855,65.5 C217.095001,65.5 217.312499,65.597499 217.5075,65.7925 C217.702501,65.987501 217.8,66.2049988 217.8,66.445 C217.8,66.6250009 217.755,66.7899992 217.665,66.94 L207.27,86.29 L207.27,95.875 C207.27,96.2050016 207.157501,96.4749989 206.9325,96.685 C206.707499,96.8950011 206.430002,97 206.1,97 L199.935,97 C199.634998,97 199.372501,96.8875011 199.1475,96.6625 Z" id="Sunny"></path>
            </g>
        </g>
    </g>
</svg>