<?xml version="1.0" encoding="UTF-8"?>
<svg width="367px" height="353px" viewBox="0 0 367 353" version="1.1" xmlns="http://www.w3.org/2000/svg" xmlns:xlink="http://www.w3.org/1999/xlink">
    <!-- Generator: Sketch 46.2 (44496) - http://www.bohemiancoding.com/sketch -->
    <title>4</title>
    <desc>Created with Sketch.</desc>
    <defs>
        <linearGradient x1="-6.93683948%" y1="43.746835%" x2="110.133054%" y2="43.746835%" id="linearGradient-1">
            <stop stop-color="#EC008C" offset="0%"></stop>
            <stop stop-color="#FC6767" offset="50.0298948%"></stop>
            <stop stop-color="#FCEA67" offset="100%"></stop>
        </linearGradient>
    </defs>
    <g id="Page-1" stroke="none" stroke-width="1" fill="none" fill-rule="evenodd">
        <g id="4">
            <g id="Group-2" transform="translate(223.613118, 175.341582) rotate(6.000000) translate(-223.613118, -175.341582) translate(139.113118, 90.841582)"></g>
            <g id="Group-3" transform="translate(64.000000, 73.000000)">
                <g id="Group" transform="translate(0.283772, 0.677913)">
                    <path d="M127.47664,183 C178.010695,183 218.97664,142.034055 218.97664,91.5 C218.97664,40.9659454 178.010695,-1.70530257e-13 127.47664,-1.70530257e-13 C76.9425856,-1.70530257e-13 35.9766402,40.9659454 35.9766402,91.5 C35.9766402,142.034055 76.9425856,183 127.47664,183 Z M175.904927,98.2288591 C175.88804,97.9453382 175.879597,97.6563889 175.879597,97.362011 C175.879597,95.2096565 175.984739,93.2305096 176.195027,91.424511 C176.405314,89.6185124 176.708371,87.8991286 177.104207,86.2663079 C177.500042,84.6334872 177.994829,83.0563546 178.588582,81.5348626 C179.182334,80.0133706 179.862666,78.4733469 180.629597,76.9147454 C181.19861,75.8014586 182.015008,74.9541363 183.078816,74.3727532 C184.142623,73.7913701 185.181675,73.5006829 186.196003,73.5006829 C187.061893,73.5006829 187.804073,73.7171521 188.422566,74.150097 C189.041059,74.5830418 189.3503,75.2571887 189.3503,76.1725579 C189.3503,76.4446947 189.319376,76.7415667 189.257527,77.0631829 C189.195678,77.3847991 189.090535,77.7311498 188.942097,78.1022454 C188.496782,79.2402719 188.057659,80.5823809 187.624714,82.1286126 C187.191769,83.6748443 186.80831,85.2581618 186.474324,86.8786126 C186.140338,88.4990634 185.87439,90.0885657 185.676472,91.6471673 C185.478554,93.2057688 185.379597,94.578802 185.379597,95.7663079 C185.379597,96.3848006 185.422891,96.9847295 185.50948,97.5661126 C185.596069,98.1474957 185.75069,98.6670218 185.973347,99.1247063 C186.196004,99.5823909 186.492877,99.953481 186.863972,100.237988 C187.235068,100.522494 187.705115,100.664745 188.274128,100.664745 C189.189498,100.664745 190.018265,100.268916 190.760457,99.4772454 C191.502648,98.6855748 192.14587,97.7331103 192.690144,96.6198235 C193.234418,95.5065367 193.673541,94.3561576 194.007527,93.1686517 C194.341513,91.9811457 194.557982,90.9915723 194.656941,90.1999017 L197.254597,79.2897454 C197.452515,78.4485954 197.80505,77.7002305 198.312214,77.0446282 C198.819378,76.389026 199.400753,75.8385758 200.056355,75.393261 C200.711957,74.9479463 201.398474,74.6139653 202.115925,74.3913079 C202.833377,74.1686505 203.513708,74.0573235 204.156941,74.0573235 C204.923872,74.0573235 205.567095,74.224314 206.086628,74.5583001 C206.606162,74.8922861 206.865925,75.417997 206.865925,76.1354485 C206.865925,76.3581059 206.828816,76.6178689 206.754597,76.9147454 C206.606159,77.5579778 206.420614,78.4362242 206.197957,79.549511 C205.975299,80.6627978 205.734091,81.924504 205.474324,83.3346673 C205.214557,84.7448306 204.948609,86.2353756 204.676472,87.806347 C204.404335,89.3773184 204.144572,90.9420814 203.897175,92.5006829 C203.278683,96.1621595 202.64783,100.095714 202.004597,104.301464 C202.746788,103.880889 203.550817,103.361363 204.416707,102.74287 C205.282596,102.124378 206.24743,101.29561 207.311238,100.256542 C208.375045,99.2174746 209.562533,97.9124746 210.873738,96.3415032 C212.184942,94.7705318 213.656933,92.8099394 215.289753,90.4596673 L217.071003,98.6979485 C216.625689,99.4648794 216.050499,100.250353 215.345417,101.054394 C214.640336,101.858434 213.861047,102.662463 213.007527,103.466503 C212.154007,104.270544 211.263391,105.049833 210.335652,105.804394 C209.407913,106.558955 208.498742,107.270211 207.608113,107.938183 C205.505238,109.521524 203.241588,111.055363 200.817097,112.539745 C200.347043,115.186894 199.790408,117.76597 199.147175,120.27705 C198.503943,122.78813 197.743208,125.138367 196.864949,127.327831 C195.986689,129.517295 194.984746,131.527366 193.859089,133.358105 C192.733433,135.188843 191.459357,136.759791 190.036824,138.070995 C188.614291,139.3822 187.024788,140.402697 185.268269,141.132519 C183.51175,141.86234 181.569712,142.227245 179.442097,142.227245 C178.600947,142.227245 177.691776,142.140658 176.714558,141.96748 C175.73734,141.794302 174.834354,141.447951 174.005574,140.928417 C173.176794,140.408883 172.490277,139.666703 171.946003,138.701855 C171.40173,137.737006 171.129597,136.450561 171.129597,134.84248 C171.129597,133.729193 171.414099,132.473672 171.983113,131.075878 C172.552126,129.678085 173.331415,128.206094 174.321003,126.659863 C175.310592,125.113631 176.48571,123.505574 177.846394,121.835644 C179.207078,120.165714 180.685253,118.501993 182.280964,116.844433 C183.876675,115.186873 185.546581,113.554076 187.29073,111.945995 C189.034879,110.337914 190.797557,108.804076 192.578816,107.344433 L193.580769,103.893261 C192.244825,105.080767 190.853237,106.039416 189.405964,106.769238 C187.958691,107.499059 186.554734,107.863964 185.19405,107.863964 C184.006544,107.863964 182.84998,107.622756 181.724324,107.140331 C180.598667,106.657907 179.602909,105.965206 178.737019,105.062206 C178.517633,104.833419 178.309366,104.591927 178.112215,104.337731 C177.357369,104.84135 176.581273,105.305495 175.783915,105.730175 C174.645889,106.336298 173.458401,106.831085 172.221415,107.21455 C170.98443,107.598016 169.685615,107.789745 168.324931,107.789745 C166.964247,107.789745 165.820053,106.806357 164.892314,104.83955 C163.964575,102.872743 163.500712,99.9967956 163.500712,96.2116204 C163.500712,94.727238 163.59967,93.125366 163.797587,91.4059563 C163.995505,89.6865467 164.242898,87.8372813 164.539775,85.8581048 L163.946025,85.8581048 L154.223368,105.15498 C153.728574,106.169308 153.171939,106.862009 152.553447,107.233105 C151.934954,107.6042 151.217513,107.789745 150.401103,107.789745 C149.386775,107.789745 148.570377,107.573276 147.951884,107.140331 C147.333391,106.707386 146.857159,106.126012 146.523173,105.396191 C146.325379,104.963974 146.166632,104.497053 146.046931,103.995424 C145.135569,104.632683 144.192442,105.210929 143.21753,105.730175 C142.079504,106.336298 140.892016,106.831085 139.65503,107.21455 C138.418045,107.598016 137.11923,107.789745 135.758546,107.789745 C134.397862,107.789745 133.253668,106.806357 132.325929,104.83955 C131.39819,102.872743 130.934327,99.9967956 130.934327,96.2116204 C130.934327,94.727238 131.033285,93.125366 131.231202,91.4059563 C131.42912,89.6865467 131.676513,87.8372813 131.97339,85.8581048 L131.37964,85.8581048 L121.656984,105.15498 C121.162189,106.169308 120.605554,106.862009 119.987062,107.233105 C119.368569,107.6042 118.651128,107.789745 117.834718,107.789745 C116.82039,107.789745 116.003992,107.573276 115.385499,107.140331 C114.767007,106.707386 114.290774,106.126012 113.956788,105.396191 C113.711566,104.860334 113.526361,104.271136 113.401173,103.628587 C112.889139,103.920724 112.362113,104.206865 111.820091,104.487011 C110.719174,105.056024 109.612089,105.556996 108.498802,105.989941 C107.385515,106.422886 106.284615,106.769236 105.196067,107.029003 C104.10752,107.28877 103.093208,107.418652 102.153099,107.418652 C101.21299,107.418652 100.408961,107.233107 99.7409893,106.862011 C99.0730172,106.490915 98.4978276,105.971389 98.0154033,105.303417 C97.532979,104.635445 97.12478,103.837602 96.790794,102.909863 C96.4568079,101.982124 96.1661207,100.949256 95.9187236,99.8112298 C95.0280942,100.973996 94.0879994,102.043972 93.0984111,103.021191 C92.1088229,103.998409 91.1006949,104.845731 90.0739971,105.563183 C89.0472992,106.280634 88.0082471,106.843454 86.9568096,107.251659 C85.905372,107.659865 84.8848744,107.863964 83.8952861,107.863964 C83.0788758,107.863964 82.3119564,107.727898 81.5945049,107.455761 C80.8770534,107.183624 80.2400155,106.725947 79.6833721,106.082714 C79.1267287,105.439482 78.6876055,104.59216 78.3659893,103.540722 C78.0443731,102.489284 77.8835674,101.184284 77.8835674,99.6256829 C77.8835674,97.7207255 78.1124063,95.2962705 78.5700908,92.3522454 C79.0277754,89.4082203 79.5905953,86.0436706 80.2585674,82.2584954 C80.3080468,81.8873998 80.4008193,81.3864282 80.5368877,80.7555657 C80.6729561,80.1247032 80.8585011,79.4381866 81.0935283,78.6959954 C81.3285556,77.9538042 81.6192427,77.1992544 81.9655986,76.4323235 C82.3119545,75.6653926 82.7201536,74.9726912 83.190208,74.3541985 C83.6602625,73.7357059 84.2107127,73.2285495 84.8415752,72.8327142 C85.4724377,72.4368788 86.1836936,72.2265945 86.9753643,72.2018548 C88.2865687,72.2513342 89.2266635,72.4183247 89.7956768,72.7028313 C90.36469,72.987338 90.6491924,73.3398735 90.6491924,73.7604485 C90.426535,75.071653 90.1853265,76.5312738 89.9255596,78.1393548 C89.6657927,79.7474357 89.3998448,81.3678622 89.127708,83.0006829 C88.8555712,84.6335036 88.5958082,86.2230059 88.3484111,87.7692376 C88.1010141,89.3154693 87.8783601,90.6946873 87.6804424,91.9069329 C87.4825247,93.1191785 87.3279039,94.0963823 87.2165752,94.8385735 C87.1052465,95.5807647 87.049583,95.9642244 87.049583,95.9889642 C87.049583,96.4342789 87.0928769,96.8610324 87.1794658,97.2692376 C87.2660548,97.6774428 87.3959363,98.042348 87.5691143,98.3639642 C87.7422922,98.6855803 87.9649462,98.9453434 88.237083,99.143261 C88.5092198,99.3411787 88.8308312,99.440136 89.2019268,99.440136 C89.7462003,99.440136 90.3028354,99.2978848 90.8718486,99.0133782 C91.4408619,98.7288716 91.9789425,98.3206725 92.4861065,97.7887688 C92.9932705,97.2568651 93.4447633,96.6012727 93.8405986,95.821972 C94.236434,95.0426712 94.533306,94.1582399 94.7312236,93.1686517 L98.4050518,74.3170892 C98.5287503,73.7233362 99.0297219,73.2223646 99.9079815,72.8141595 C100.786241,72.4059543 101.781999,72.2018548 102.895286,72.2018548 C104.157011,72.2018548 105.158954,72.4245088 105.901146,72.8698235 C106.643337,73.3151383 107.014427,73.884143 107.014427,74.5768548 C107.014427,75.2448269 106.940209,76.1539975 106.791771,77.3043938 C106.643332,78.4547902 106.451602,79.7164964 106.216575,81.0895501 C105.981548,82.4626038 105.72797,83.8789308 105.455833,85.3385735 C105.183696,86.7982162 104.930118,88.1588797 104.695091,89.4206048 C104.460064,90.6823298 104.268334,91.7894151 104.119896,92.7418938 C103.971457,93.6943726 103.897239,94.3561498 103.897239,94.7272454 C103.897239,95.4199572 103.909609,96.0569951 103.934349,96.6383782 C103.959088,97.2197613 104.033306,97.7269177 104.157005,98.1598626 C104.280703,98.5928075 104.472433,98.9267885 104.7322,99.1618157 C104.991967,99.3968429 105.369242,99.5143548 105.864036,99.5143548 C106.40831,99.5143548 107.070087,99.3782884 107.849388,99.1061517 C108.628688,98.8340149 109.457456,98.4691097 110.335716,98.0114251 C111.213975,97.5537405 112.110776,97.0342145 113.026146,96.4528313 C113.105256,96.4025854 113.184043,96.3521086 113.262507,96.3014008 C113.304962,95.6837952 113.357028,95.0415643 113.418702,94.3747063 C113.61662,92.2347217 113.864013,90.0576601 114.16089,87.8434563 C114.457766,85.6292526 114.791747,83.4954848 115.162843,81.4420892 C115.533939,79.3886935 115.892659,77.6322006 116.239015,76.1725579 C116.511152,75.0345314 117.036862,74.0820669 117.816163,73.315136 C118.595464,72.5482051 119.653071,72.1647454 120.989015,72.1647454 C122.324959,72.1647454 123.252684,72.5729444 123.772218,73.3893548 C124.291752,74.2057651 124.551515,75.2942959 124.551515,76.6549798 C124.551515,77.0260754 124.514406,77.5270469 124.440187,78.1579095 C124.365968,78.788772 124.273195,79.4814734 124.161866,80.2360345 C124.050538,80.9905955 123.933026,81.7698846 123.809327,82.5739251 C123.685629,83.3779656 123.568117,84.1201456 123.456788,84.8004876 C123.34546,85.4808295 123.252687,86.0745736 123.178468,86.5817376 C123.104249,87.0889016 123.06714,87.4290675 123.06714,87.6022454 L123.809327,87.6022454 C123.957766,87.3301086 124.192789,86.8909854 124.514405,86.2848626 C124.836022,85.6787398 125.207112,84.9798535 125.627687,84.1881829 C126.048262,83.3965123 126.499755,82.5615597 126.982179,81.6833001 C127.464603,80.8050405 127.916096,79.9639031 128.336671,79.1598626 C128.757246,78.3558221 129.140706,77.6445662 129.487062,77.0260735 C129.833418,76.4075809 130.093181,75.9499031 130.266359,75.6530267 C131.058029,74.3170825 131.961015,73.401727 132.975343,72.9069329 C133.989671,72.4121388 135.115311,72.1647454 136.352296,72.1647454 C137.589281,72.1647454 138.57267,72.6842715 139.302491,73.7233392 C140.032313,74.7624068 140.397218,76.1972883 140.397218,78.0280267 C140.397218,78.3001634 140.341554,78.7578411 140.230226,79.4010735 C140.118897,80.0443059 139.976646,80.8112253 139.803468,81.7018548 C139.63029,82.5924842 139.43856,83.569688 139.228273,84.6334954 C139.017985,85.6973028 138.826255,86.7858336 138.653077,87.8991204 C138.479899,89.0124072 138.337648,90.1133077 138.226319,91.2018548 C138.114991,92.2904019 138.059327,93.292345 138.059327,94.2077142 C138.059327,95.741576 138.251057,97.0032821 138.634523,97.9928704 C139.017988,98.9824587 139.617917,99.4772454 140.434327,99.4772454 C140.805423,99.4772454 141.232176,99.3659184 141.714601,99.143261 C142.197025,98.9206037 142.716551,98.6299165 143.273194,98.2711907 C143.829838,97.912465 144.398843,97.4980811 144.980226,97.0280267 C145.26391,96.7986652 145.546119,96.5663603 145.826856,96.3311102 C145.869679,95.7043981 145.922423,95.052264 145.985087,94.3747063 C146.183005,92.2347217 146.430398,90.0576601 146.727275,87.8434563 C147.024151,85.6292526 147.358132,83.4954848 147.729228,81.4420892 C148.100323,79.3886935 148.459044,77.6322006 148.8054,76.1725579 C149.077536,75.0345314 149.603247,74.0820669 150.382548,73.315136 C151.161849,72.5482051 152.219456,72.1647454 153.5554,72.1647454 C154.891344,72.1647454 155.819069,72.5729444 156.338603,73.3893548 C156.858137,74.2057651 157.1179,75.2942959 157.1179,76.6549798 C157.1179,77.0260754 157.080791,77.5270469 157.006572,78.1579095 C156.932352,78.788772 156.83958,79.4814734 156.728251,80.2360345 C156.616923,80.9905955 156.499411,81.7698846 156.375712,82.5739251 C156.252014,83.3779656 156.134502,84.1201456 156.023173,84.8004876 C155.911844,85.4808295 155.819072,86.0745736 155.744853,86.5817376 C155.670634,87.0889016 155.633525,87.4290675 155.633525,87.6022454 L156.375712,87.6022454 C156.52415,87.3301086 156.759174,86.8909854 157.08079,86.2848626 C157.402407,85.6787398 157.773497,84.9798535 158.194072,84.1881829 C158.614647,83.3965123 159.066139,82.5615597 159.548564,81.6833001 C160.030988,80.8050405 160.482481,79.9639031 160.903056,79.1598626 C161.323631,78.3558221 161.707091,77.6445662 162.053447,77.0260735 C162.399802,76.4075809 162.659566,75.9499031 162.832743,75.6530267 C163.624414,74.3170825 164.5274,73.401727 165.541728,72.9069329 C166.556056,72.4121388 167.681696,72.1647454 168.918681,72.1647454 C170.155666,72.1647454 171.139055,72.6842715 171.868876,73.7233392 C172.598698,74.7624068 172.963603,76.1972883 172.963603,78.0280267 C172.963603,78.3001634 172.907939,78.7578411 172.796611,79.4010735 C172.685282,80.0443059 172.543031,80.8112253 172.369853,81.7018548 C172.196675,82.5924842 172.004945,83.569688 171.794658,84.6334954 C171.58437,85.6973028 171.39264,86.7858336 171.219462,87.8991204 C171.046284,89.0124072 170.904033,90.1133077 170.792704,91.2018548 C170.681376,92.2904019 170.625712,93.292345 170.625712,94.2077142 C170.625712,95.741576 170.817442,97.0032821 171.200908,97.9928704 C171.584373,98.9824587 172.184302,99.4772454 173.000712,99.4772454 C173.371808,99.4772454 173.798561,99.3659184 174.280986,99.143261 C174.76341,98.9206037 175.282936,98.6299165 175.839579,98.2711907 C175.861343,98.2571653 175.883126,98.2430547 175.904927,98.2288591 Z M39.969345,139.737174 L39.969345,152.561969 L45.2162282,152.561969 L46.0824087,153.322087 L46.0824087,154.822087 L45.2162282,155.561969 L37.7162282,155.561969 L37.3893559,155.180399 L36.969345,155.180399 L36.969345,139.081066 L21.4200733,135.680399 L34.2623569,112.564288 C25.4924309,112.62839 17.1805369,112.026428 11.9685989,109.922718 C11.5439676,109.751323 7.87754964,112.003883 0.969345031,116.680399 C5.47677737,103.166326 9.32174081,95.1696668 12.5042354,92.69042 C17.2779772,88.97155 27.5185833,83.2980506 38.3966488,82.1124314 C50.9270233,80.7467243 60.956039,84.8350794 66.1665443,90.0052049 C66.4467496,88.9130941 66.5868522,88.3867293 66.5868522,88.4261107 C68.5868522,86.7303153 68.025355,83.8500551 67.025355,81.8234555 C66.0618571,79.8708311 61.9815209,77.4755085 59.0010224,75.514357 C58.8881062,75.4400588 58.7767685,75.3663837 58.6672388,75.2933794 C55.6665973,73.2933794 49.492145,68.3746485 48.51563,66.464742 C47.4294532,64.3403547 46.4490526,61.4969828 46.051856,58.7071768 C45.844543,57.2510644 46.1971673,53.7036806 46.7722427,52.2659921 C47.7722427,49.7659921 50.2786005,45.7147066 53.2786005,43.7147066 C56.1492129,41.800965 58.2788696,39.855811 63.7139061,39.6915849 C63.8556242,39.6126806 64.0005346,39.5373072 64.1485683,39.4656479 C68.1080087,37.5489862 72.8024583,39.0152107 74.633915,42.7405521 C75.4665716,44.4342475 75.5793015,46.3472322 75.0185488,48.1247876 C74.8747375,48.5806617 77.8987051,51.2165282 78.969345,53.5081209 C79.2476099,54.1037177 78.5809432,56.8278103 76.969345,61.6803987 C74.9080989,57.7040632 73.5747656,55.5373966 72.969345,55.1803987 C71.2259801,54.15239 69.7875711,53.3739494 69.2812795,53.5081209 C65.6956347,54.4583461 61.9003653,52.9458066 60.2955131,49.6813983 C60.1161005,49.3164576 59.9708181,48.9433752 59.8584229,48.5654464 C59.0617,48.9489042 58.3198247,49.6756636 57.1939773,50.986364 C55.2102617,53.295786 54.5494329,55.1675605 54.5494329,58.1675605 C54.5494329,61.1675605 55.2831353,62.4421102 56.7831353,64.4421102 C58.2831353,66.4421102 61.7733708,69.0173563 64.7733708,71.0173563 C67.7733708,73.0173563 73.469345,76.6803987 74.969345,80.1803987 C76.469345,83.6803987 76.4540653,83.1739965 76.469345,84.1803987 C76.5022875,86.3501613 74.6311617,92.9691323 73.1979835,95.1706896 C72.3823449,96.4236216 70.7694434,98.2506618 68.3592789,100.65181 C66.9458083,103.387523 64.1318595,106.116124 60.1459333,108.764077 C54.1863241,112.723199 52.3575804,112.240422 39.969345,112.461 L39.969345,136.963966 L46.2208553,138.392114 L47.5193444,137.435159 C49.0091578,138.841289 49.4976945,139.730617 48.9849543,140.103145 C48.5269582,140.435898 47.8399641,140.935029 46.9239719,141.600536 C46.301838,141.852453 45.8992568,141.852453 45.7162282,141.600536 C45.6353897,141.489271 45.5541269,141.269332 45.4724397,140.940716 L39.969345,139.737174 Z M179.88741,135.102245 C180.926477,135.102245 181.909866,134.799189 182.837605,134.193066 C183.765344,133.586943 184.618851,132.789099 185.398152,131.799511 C186.177453,130.809923 186.888708,129.684283 187.531941,128.422558 C188.175173,127.160833 188.744178,125.868203 189.238972,124.544628 C189.733766,123.221054 190.154335,121.928424 190.500691,120.666699 C190.847047,119.404973 191.119179,118.279334 191.317097,117.289745 C190.352249,117.932978 189.36886,118.699897 188.366902,119.590527 C187.364944,120.481156 186.38774,121.439805 185.435261,122.466503 C184.482782,123.493201 183.579797,124.550808 182.726277,125.639355 C181.872757,126.727902 181.124392,127.773139 180.48116,128.775097 C179.837927,129.777055 179.330771,130.710965 178.959675,131.576855 C178.58858,132.442745 178.403035,133.160185 178.403035,133.729199 C178.403035,134.644568 178.897821,135.102245 179.88741,135.102245 Z M70.3454815,116.282806 L70.3454815,153.410736 L66.6921611,153.410736 L66.6921611,116.282806 L57.0066143,116.282806 L57.0066143,112.799408 L80.0310283,112.799408 L80.0310283,116.282806 L70.3454815,116.282806 Z M84.0026864,153.410736 L84.0026864,112.799408 L106.857179,112.799408 L106.857179,116.282806 L87.6560067,116.282806 L87.6560067,131.377533 L103.203858,131.377533 L103.203858,134.860931 L87.6560067,134.860931 L87.6560067,149.927337 L106.857179,149.927337 L106.857179,153.410736 L84.0026864,153.410736 Z M134.249735,144.008392 C134.249735,145.386654 133.990135,146.679936 133.470926,147.888275 C132.951718,149.096614 132.238997,150.153895 131.332743,151.06015 C130.426488,151.966405 129.369207,152.679125 128.160868,153.198334 C126.952529,153.717542 125.659247,153.977142 124.280985,153.977142 L121.392313,153.977142 C120.014051,153.977142 118.71605,153.717542 117.49827,153.198334 C116.280491,152.679125 115.21849,151.966405 114.312235,151.06015 C113.405981,150.153895 112.69326,149.096614 112.174051,147.888275 C111.654843,146.679936 111.395243,145.386654 111.395243,144.008392 L111.395243,122.201752 C111.395243,120.823489 111.654843,119.530208 112.174051,118.321869 C112.69326,117.113529 113.405981,116.056248 114.312235,115.149994 C115.21849,114.243739 116.280491,113.531018 117.49827,113.01181 C118.71605,112.492602 120.014051,112.233002 121.392313,112.233002 L124.280985,112.233002 C125.659247,112.233002 126.952529,112.492602 128.160868,113.01181 C129.369207,113.531018 130.426488,114.243739 131.332743,115.149994 C132.238997,116.056248 132.951718,117.113529 133.470926,118.321869 C133.990135,119.530208 134.249735,120.823489 134.249735,122.201752 L134.249735,123.84433 L130.596415,124.410736 L130.596415,122.201752 C130.596415,121.295497 130.426495,120.450616 130.086649,119.667084 C129.746804,118.883551 129.284243,118.19915 128.698954,117.613861 C128.113664,117.028572 127.429264,116.566011 126.645731,116.226166 C125.862199,115.88632 125.017318,115.7164 124.111063,115.7164 L121.562235,115.7164 C120.655981,115.7164 119.8111,115.88632 119.027567,116.226166 C118.244035,116.566011 117.554914,117.028572 116.960184,117.613861 C116.365455,118.19915 115.898174,118.883551 115.558329,119.667084 C115.218483,120.450616 115.048563,121.295497 115.048563,122.201752 L115.048563,144.008392 C115.048563,144.914647 115.218483,145.759528 115.558329,146.54306 C115.898174,147.326593 116.365455,148.015713 116.960184,148.610443 C117.554914,149.205172 118.244035,149.672453 119.027567,150.012298 C119.8111,150.352144 120.655981,150.522064 121.562235,150.522064 L124.111063,150.522064 C125.017318,150.522064 125.862199,150.352144 126.645731,150.012298 C127.429264,149.672453 128.113664,149.205172 128.698954,148.610443 C129.284243,148.015713 129.746804,147.326593 130.086649,146.54306 C130.426495,145.759528 130.596415,144.914647 130.596415,144.008392 L130.596415,141.799408 L134.249735,142.394134 L134.249735,144.008392 Z M159.744831,153.410736 L159.744831,134.860931 L144.196979,134.860931 L144.196979,153.410736 L140.543659,153.410736 L140.543659,112.799408 L144.196979,112.799408 L144.196979,131.377533 L159.744831,131.377533 L159.744831,112.799408 L163.398151,112.799408 L163.398151,153.410736 L159.744831,153.410736 Z M36.969345,136.278621 L36.969345,114.009734 L26.2162282,133.822087 L36.969345,136.278621 L36.969345,136.278621 Z" id="Sunny" fill="url(#linearGradient-1)"></path>
                    <g transform="translate(180.006614, 102.233002)"></g>
                </g>
            </g>
        </g>
    </g>
</svg>