<?xml version="1.0" encoding="UTF-8"?>
<svg width="313px" height="192px" viewBox="0 0 313 192" version="1.1" xmlns="http://www.w3.org/2000/svg" xmlns:xlink="http://www.w3.org/1999/xlink">
    <!-- Generator: Sketch 47 (45396) - http://www.bohemiancoding.com/sketch -->
    <title>Group 3</title>
    <desc>Created with Sketch.</desc>
    <defs>
        <linearGradient x1="19.9882349%" y1="16.7473973%" x2="93.4681372%" y2="100%" id="linearGradient-1">
            <stop stop-color="#EC008C" offset="0%"></stop>
            <stop stop-color="#FC6767" offset="49.7314718%"></stop>
            <stop stop-color="#FFBC00" offset="100%"></stop>
        </linearGradient>
    </defs>
    <g id="Page-1" stroke="none" stroke-width="1" fill="none" fill-rule="evenodd">
        <g id="13---bis" transform="translate(-27.000000, -71.000000)">
            <g id="Group-3" transform="translate(27.000000, 71.000000)">
                <path d="M232.5,156 L259,156 L259,113 L234,113 L234,54 L241,54 L241,107.594921 L259,107.594921 L259,54 L266,54 L266,190.5 L262.5,190.5 L259,190.5 L259,163 L232.5,163 L232.5,191.5 L225.5,191.5 L225.5,140.5 L232.5,140.5 L232.5,156 Z M138.5,156 L158,156 L158,163 L138.5,163 L138.5,184.5 L169,184.5 L169,191.5 L131.5,191.5 L131.5,140.5 L169,140.5 L169,147.5 L138.5,147.5 L138.5,156 Z M118.817537,94.7059879 L122.185878,91.6660681 L84.3668371,33.5770523 L124.415308,0.312837 L147.916994,22.8129796 L132.058381,39.7998929 L126.941619,35.0229954 L138.083006,23.0889277 L124.084692,9.687163 L93.6331629,34.9801684 L131.314122,92.8570927 L102.727599,118.656356 L102.727599,119.607738 L131.5,115.104063 L131.5,129.738929 L124.5,129.738929 L124.5,123.28499 L102.727599,126.692972 L102.727599,184.5 L106.5,184.5 L106.5,191.5 L95.7275994,191.5 L95.7275994,127.788666 L39.7954623,136.54359 L58.1487545,122.208609 L0.193571261,122.208609 L56.6682239,68.8975814 L118.817537,94.7059879 Z M113.065691,99.8970141 L58.1739468,77.1024186 L17.8064287,115.208609 L78.4829047,115.208609 L65.3624913,125.45641 L95.7275994,120.703432 L95.7275994,115.544598 L113.065691,99.8970141 Z M141.5,106.5 L159.5,106.5 L159.5,54 L166.5,54 L166.5,110 L163,113.5 L138,113.5 L134.5,110 L134.5,54 L141.5,54 L141.5,106.5 Z M192,113.5 L179,75.2091596 L179,113.5 L172,113.5 L172,54 L179,54 L191,88.7908404 L191,54 L198,54 L198,113.5 L192,113.5 Z M222,113.5 L210,75.2091596 L210,113.5 L206.5,113.5 L203,113.5 L203,54 L210,54 L222,88.7908404 L222,54 L229,54 L229,113.5 L222,113.5 Z M186.5,147.5 L186.5,184.5 L217,184.5 L217,191.5 L179.5,191.5 L179.5,140.5 L217,140.5 L217,147.5 L186.5,147.5 Z" id="Combined-Shape" fill="url(#linearGradient-1)" fill-rule="nonzero"></path>
                <path d="M295.562335,122.5 L313,122.5 M290.555026,140.959685 L305.656487,149.678517 M276.874804,154.473112 L285.593637,169.574573 M276.874804,90.5268882 L285.593637,75.4254273 M290.555026,104.040315 L305.656487,95.3214828" id="Path-57" stroke="#FFCD00" stroke-width="5" stroke-linejoin="round"></path>
            </g>
        </g>
    </g>
</svg>